<svg width="71" height="83" viewBox="0 0 71 83" fill="none" xmlns="http://www.w3.org/2000/svg">
<path d="M70.61 19.92L65.61 12.61L56.84 18.61C55.6043 17.3877 54.266 16.2736 52.84 15.28L57.66 6.28L49.85 2.1L44.85 11.31C43.1666 10.752 41.4362 10.347 39.68 10.1V0H30.88V10.1C29.1828 10.3359 27.5097 10.7207 25.88 11.25L21 2.1L13.2 6.29L18 15.16C16.5075 16.1843 15.1087 17.3388 13.82 18.61L5 12.61L0 19.92L8.4 25.67C5.88145 30.2102 4.56319 35.318 4.57 40.51V52.9C4.89008 60.8317 8.26611 68.3321 13.9913 73.8309C19.7164 79.3296 27.3468 82.4005 35.285 82.4005C43.2232 82.4005 50.8535 79.3296 56.5787 73.8309C62.3039 68.3321 65.6799 60.8317 66 52.9V40.51C66.002 35.3186 64.684 30.212 62.17 25.67L70.61 19.92ZM57.18 52.92C57.18 53.26 57.18 53.6 57.18 53.92C56.9151 59.5435 54.4938 64.8487 50.4191 68.7335C46.3444 72.6182 40.9297 74.7837 35.3 74.78C31.0839 74.7736 26.9591 73.5514 23.42 71.26C20.3522 69.2786 17.8296 66.5602 16.0828 63.353C14.336 60.1458 13.4205 56.5521 13.42 52.9V40.49C13.5423 34.7694 15.9007 29.3243 19.9898 25.3217C24.0788 21.3192 29.5731 19.0777 35.295 19.0777C41.0169 19.0777 46.5112 21.3192 50.6002 25.3217C54.6893 29.3243 57.0477 34.7694 57.17 40.49L57.18 52.92Z" fill="white"/>
<path d="M57.1599 53.9101C56.9879 57.6664 55.8477 61.3145 53.8499 64.5001C51.2555 60.0195 47.6453 56.2106 43.3099 53.3801C36.4799 56.5601 33.0699 67.5201 31.7799 74.4901C28.7977 74.0112 25.9494 72.9108 23.4199 71.2601C24.0016 68.476 24.7666 65.7334 25.7099 63.0501C27.7799 57.2301 30.5399 52.6301 33.8699 49.3701C32.405 49.005 30.9188 48.7311 29.4199 48.5501C24.0704 47.9008 18.647 48.2398 13.4199 49.5501V40.4501C18.9183 39.3172 24.5607 39.0573 30.1399 39.6801C40.6518 40.7377 50.3409 45.8404 57.1599 53.9101Z" fill="white"/>
</svg>
